<svg xmlns="http://www.w3.org/2000/svg" viewBox="0 0 100 80">
    <defs>
        <linearGradient id="grad" x1="0%" y1="0%" x2="100%" y2="0%">
            <stop offset="0%" style="stop-color:rgb(253,85,49);stop-opacity:1"/>
            <stop offset="100%" style="stop-color:rgb(255,213,161);stop-opacity:1"/>
        </linearGradient>
    </defs>
    <g transform="translate(0 -10)" fill="url(#grad)">
        <path xmlns="http://www.w3.org/2000/svg" fill-rule="evenodd" clip-rule="evenodd"
              d="M92.5285187,14.8961754L72.3354797,31.022337  c0,0-8.8635406,6.5809231-10.1633186,18.2006702l13.6613731-10.8255768  C83.5177078,32.3083496,89.3086014,24.1565723,92.5285187,14.8961754z"></path>
        <path xmlns="http://www.w3.org/2000/svg" fill-rule="evenodd" clip-rule="evenodd"
              d="M24.1664658,38.3974304l13.6613731,10.8255768  C36.5280609,37.60326,27.6645184,31.022337,27.6645184,31.022337L7.4714789,14.8961754  C10.6913815,24.1565723,16.4822922,32.3083496,24.1664658,38.3974304z"></path>
        <path xmlns="http://www.w3.org/2000/svg" fill-rule="evenodd" clip-rule="evenodd"
              d="M50,75.8168182c-3.1293068-3.0203857-5.9778557-4.3379974-5.9778557-4.3379974  L21.8298531,60.308197c4.8643284,8.074852,11.9238243,14.6005554,20.3554039,18.8163757l3.660759,1.8303909 c-0.9784088,1.5820541-1.8557549,3.3817673-2.5282135,5.4180756L50,83.0319214l6.6821976,3.3411179  c-0.6724586-2.0363083-1.5498047-3.8360214-2.5282135-5.4180756l3.660759-1.8303909  c8.4316025-4.2158203,15.4910736-10.7415237,20.355423-18.8163757L55.9778557,71.4788208  C55.9778557,71.4788208,53.1293068,72.7964325,50,75.8168182z"></path>
        <path xmlns="http://www.w3.org/2000/svg" fill-rule="evenodd" clip-rule="evenodd"
              d="M67.685173,49.3397369c0,0-11.2916908,6.6234131-14.500473,20.8909988  L71.0340347,59.005619C81.4154358,52.476963,89.7270813,43.1317787,95,32.0595551L67.685173,49.3397369z"></path>
        <path xmlns="http://www.w3.org/2000/svg" fill-rule="evenodd" clip-rule="evenodd"
              d="M46.8153,70.2307358  C43.6065178,55.96315,32.3148117,49.3397369,32.3148117,49.3397369L5,32.0595551  c5.2728977,11.0722237,13.5845642,20.417408,23.9659481,26.946064L46.8153,70.2307358z"></path>
    </g>
</svg>